<svg width="506" height="69" viewBox="0 0 506 69" fill="none" xmlns="http://www.w3.org/2000/svg">
<path d="M336.5 8H417H497.5L417 66H497.5" stroke="#FF7A3C" stroke-width="5"/>
<path d="M10.772 51.72C8.132 51.72 5.932 51.032 4.172 49.656C2.428 48.28 1.204 46.424 0.5 44.088L6.212 42.72C6.388 43.696 6.9 44.536 7.748 45.24C8.596 45.944 9.532 46.296 10.556 46.296C11.228 46.296 11.94 46.12 12.692 45.768C13.444 45.4 14.004 44.816 14.372 44.016C14.596 43.504 14.724 42.896 14.756 42.192C14.804 41.472 14.828 40.64 14.828 39.696V16.44H20.684V39.696C20.684 40.768 20.676 41.712 20.66 42.528C20.66 43.328 20.58 44.088 20.42 44.808C20.276 45.512 19.98 46.24 19.532 46.992C18.588 48.624 17.356 49.824 15.836 50.592C14.316 51.344 12.628 51.72 10.772 51.72ZM39.3549 51.72C36.7629 51.72 34.4989 51.136 32.5629 49.968C30.6269 48.8 29.1229 47.192 28.0509 45.144C26.9949 43.08 26.4669 40.712 26.4669 38.04C26.4669 35.32 27.0109 32.936 28.0989 30.888C29.1869 28.84 30.6989 27.24 32.6349 26.088C34.5709 24.936 36.8109 24.36 39.3549 24.36C41.9629 24.36 44.2349 24.944 46.1709 26.112C48.1069 27.28 49.6109 28.896 50.6829 30.96C51.7549 33.008 52.2909 35.368 52.2909 38.04C52.2909 40.728 51.7469 43.104 50.6589 45.168C49.5869 47.216 48.0829 48.824 46.1469 49.992C44.2109 51.144 41.9469 51.72 39.3549 51.72ZM39.3549 46.296C41.6589 46.296 43.3709 45.528 44.4909 43.992C45.6109 42.456 46.1709 40.472 46.1709 38.04C46.1709 35.528 45.6029 33.528 44.4669 32.04C43.3309 30.536 41.6269 29.784 39.3549 29.784C37.8029 29.784 36.5229 30.136 35.5149 30.84C34.5229 31.528 33.7869 32.496 33.3069 33.744C32.8269 34.976 32.5869 36.408 32.5869 38.04C32.5869 40.552 33.1549 42.56 34.2909 44.064C35.4429 45.552 37.1309 46.296 39.3549 46.296ZM58.0588 21.144V15.84H63.8428V21.144H58.0588ZM58.0588 51V25.08H63.8428V51H58.0588ZM88.9599 51V38.52C88.9599 37.704 88.9039 36.8 88.7919 35.808C88.6799 34.816 88.4159 33.864 87.9999 32.952C87.5999 32.024 86.9919 31.264 86.1759 30.672C85.3759 30.08 84.2879 29.784 82.9119 29.784C82.1759 29.784 81.4479 29.904 80.7279 30.144C80.0079 30.384 79.3519 30.8 78.7599 31.392C78.1839 31.968 77.7199 32.768 77.3679 33.792C77.0159 34.8 76.8399 36.096 76.8399 37.68L73.4079 36.216C73.4079 34.008 73.8319 32.008 74.6799 30.216C75.5439 28.424 76.8079 27 78.4719 25.944C80.1359 24.872 82.1839 24.336 84.6159 24.336C86.5359 24.336 88.1199 24.656 89.3679 25.296C90.6159 25.936 91.6079 26.752 92.3439 27.744C93.0799 28.736 93.6239 29.792 93.9759 30.912C94.3279 32.032 94.5519 33.096 94.6479 34.104C94.7599 35.096 94.8159 35.904 94.8159 36.528V51H88.9599ZM70.9839 51V25.08H76.1439V33.12H76.8399V51H70.9839ZM118.992 51V21.864H107.808V16.44H135.96V21.864H124.776V51H118.992ZM140.278 21.144V15.84H146.062V21.144H140.278ZM140.278 51V25.08H146.062V51H140.278ZM184.379 51V35.256C184.379 33.48 183.939 32.096 183.059 31.104C182.179 30.096 180.987 29.592 179.483 29.592C178.555 29.592 177.723 29.808 176.987 30.24C176.251 30.656 175.667 31.28 175.235 32.112C174.803 32.928 174.587 33.904 174.587 35.04L172.019 33.528C172.003 31.736 172.403 30.16 173.219 28.8C174.051 27.424 175.171 26.352 176.579 25.584C177.987 24.816 179.555 24.432 181.283 24.432C184.147 24.432 186.339 25.296 187.859 27.024C189.395 28.736 190.163 30.992 190.163 33.792V51H184.379ZM153.203 51V25.08H158.315V33.12H159.035V51H153.203ZM168.827 51V35.328C168.827 33.52 168.387 32.112 167.507 31.104C166.627 30.096 165.427 29.592 163.907 29.592C162.435 29.592 161.251 30.096 160.355 31.104C159.475 32.112 159.035 33.424 159.035 35.04L156.443 33.312C156.443 31.632 156.859 30.12 157.691 28.776C158.523 27.432 159.643 26.376 161.051 25.608C162.475 24.824 164.067 24.432 165.827 24.432C167.763 24.432 169.379 24.848 170.675 25.68C171.987 26.496 172.963 27.616 173.603 29.04C174.259 30.448 174.587 32.04 174.587 33.816V51H168.827ZM208.879 51.72C206.351 51.72 204.231 51.12 202.519 49.92C200.807 48.72 199.519 47.088 198.655 45.024C197.791 42.944 197.359 40.616 197.359 38.04C197.359 35.432 197.791 33.096 198.655 31.032C199.519 28.968 200.783 27.344 202.447 26.16C204.127 24.96 206.199 24.36 208.663 24.36C211.111 24.36 213.231 24.96 215.023 26.16C216.831 27.344 218.231 28.968 219.223 31.032C220.215 33.08 220.711 35.416 220.711 38.04C220.711 40.632 220.223 42.96 219.247 45.024C218.271 47.088 216.895 48.72 215.119 49.92C213.343 51.12 211.263 51.72 208.879 51.72ZM196.375 51V16.44H202.207V32.808H201.487V51H196.375ZM207.991 46.536C209.495 46.536 210.735 46.16 211.711 45.408C212.687 44.656 213.407 43.64 213.871 42.36C214.351 41.064 214.591 39.624 214.591 38.04C214.591 36.472 214.351 35.048 213.871 33.768C213.391 32.472 212.647 31.448 211.639 30.696C210.631 29.928 209.351 29.544 207.799 29.544C206.327 29.544 205.127 29.904 204.199 30.624C203.271 31.328 202.583 32.32 202.135 33.6C201.703 34.864 201.487 36.344 201.487 38.04C201.487 39.72 201.703 41.2 202.135 42.48C202.583 43.76 203.279 44.76 204.223 45.48C205.183 46.184 206.439 46.536 207.991 46.536ZM235.721 51.744C233.801 51.744 232.217 51.424 230.969 50.784C229.721 50.144 228.729 49.328 227.993 48.336C227.257 47.344 226.713 46.288 226.361 45.168C226.009 44.048 225.777 42.992 225.665 42C225.569 40.992 225.521 40.176 225.521 39.552V25.08H231.377V37.56C231.377 38.36 231.433 39.264 231.545 40.272C231.657 41.264 231.913 42.224 232.313 43.152C232.729 44.064 233.337 44.816 234.137 45.408C234.953 46 236.049 46.296 237.425 46.296C238.161 46.296 238.889 46.176 239.609 45.936C240.329 45.696 240.977 45.288 241.553 44.712C242.145 44.12 242.617 43.312 242.969 42.288C243.321 41.264 243.497 39.968 243.497 38.4L246.929 39.864C246.929 42.072 246.497 44.072 245.633 45.864C244.785 47.656 243.529 49.088 241.865 50.16C240.201 51.216 238.153 51.744 235.721 51.744ZM244.193 51V42.96H243.497V25.08H249.305V51H244.193ZM256 51L256.048 16.44H261.904V37.56L271.384 25.08H278.608L268.552 38.04L279.472 51H271.816L261.904 38.52V51H256ZM297.068 51C295.356 51.32 293.676 51.456 292.028 51.408C290.396 51.376 288.932 51.08 287.636 50.52C286.34 49.944 285.356 49.04 284.684 47.808C284.092 46.688 283.78 45.544 283.748 44.376C283.716 43.208 283.7 41.888 283.7 40.416V17.88H289.46V40.08C289.46 41.12 289.468 42.032 289.484 42.816C289.516 43.6 289.684 44.24 289.988 44.736C290.564 45.696 291.484 46.232 292.748 46.344C294.012 46.456 295.452 46.392 297.068 46.152V51ZM278.996 29.616V25.08H297.068V29.616H278.996ZM312.361 51.744C310.441 51.744 308.857 51.424 307.609 50.784C306.361 50.144 305.369 49.328 304.633 48.336C303.897 47.344 303.353 46.288 303.001 45.168C302.649 44.048 302.417 42.992 302.305 42C302.209 40.992 302.161 40.176 302.161 39.552V25.08H308.017V37.56C308.017 38.36 308.073 39.264 308.185 40.272C308.297 41.264 308.553 42.224 308.953 43.152C309.369 44.064 309.977 44.816 310.777 45.408C311.593 46 312.689 46.296 314.065 46.296C314.801 46.296 315.529 46.176 316.249 45.936C316.969 45.696 317.617 45.288 318.193 44.712C318.785 44.12 319.257 43.312 319.609 42.288C319.961 41.264 320.137 39.968 320.137 38.4L323.569 39.864C323.569 42.072 323.137 44.072 322.273 45.864C321.425 47.656 320.169 49.088 318.505 50.16C316.841 51.216 314.793 51.744 312.361 51.744ZM320.833 51V42.96H320.137V25.08H325.945V51H320.833ZM332.688 51V16.44H343.704C343.992 16.44 344.56 16.448 345.408 16.464C346.272 16.48 347.104 16.536 347.904 16.632C350.64 16.984 352.952 17.96 354.84 19.56C356.744 21.144 358.184 23.168 359.16 25.632C360.136 28.096 360.624 30.792 360.624 33.72C360.624 36.648 360.136 39.344 359.16 41.808C358.184 44.272 356.744 46.304 354.84 47.904C352.952 49.488 350.64 50.456 347.904 50.808C347.12 50.904 346.296 50.96 345.432 50.976C344.568 50.992 343.992 51 343.704 51H332.688ZM338.568 45.552H343.704C344.184 45.552 344.792 45.536 345.528 45.504C346.28 45.472 346.944 45.4 347.52 45.288C349.152 44.984 350.48 44.256 351.504 43.104C352.528 41.952 353.28 40.552 353.76 38.904C354.256 37.256 354.504 35.528 354.504 33.72C354.504 31.848 354.256 30.088 353.76 28.44C353.264 26.792 352.496 25.408 351.456 24.288C350.432 23.168 349.12 22.456 347.52 22.152C346.944 22.024 346.28 21.952 345.528 21.936C344.792 21.904 344.184 21.888 343.704 21.888H338.568V45.552ZM362.96 51L373.856 16.44H382.328L393.224 51H387.272L377.384 19.992H378.68L368.912 51H362.96ZM369.032 43.512V38.112H387.176V43.512H369.032ZM411.242 51.72C407.786 51.72 404.826 50.968 402.362 49.464C399.898 47.944 398.002 45.832 396.674 43.128C395.362 40.424 394.706 37.288 394.706 33.72C394.706 30.152 395.362 27.016 396.674 24.312C398.002 21.608 399.898 19.504 402.362 18C404.826 16.48 407.786 15.72 411.242 15.72C414.698 15.72 417.658 16.48 420.122 18C422.602 19.504 424.498 21.608 425.81 24.312C427.138 27.016 427.802 30.152 427.802 33.72C427.802 37.288 427.138 40.424 425.81 43.128C424.498 45.832 422.602 47.944 420.122 49.464C417.658 50.968 414.698 51.72 411.242 51.72ZM411.242 46.272C413.562 46.288 415.49 45.776 417.026 44.736C418.578 43.696 419.738 42.232 420.506 40.344C421.29 38.456 421.682 36.248 421.682 33.72C421.682 31.192 421.29 29 420.506 27.144C419.738 25.272 418.578 23.816 417.026 22.776C415.49 21.736 413.562 21.2 411.242 21.168C408.922 21.152 406.994 21.664 405.458 22.704C403.922 23.744 402.762 25.208 401.978 27.096C401.21 28.984 400.826 31.192 400.826 33.72C400.826 36.248 401.21 38.448 401.978 40.32C402.746 42.176 403.898 43.624 405.434 44.664C406.986 45.704 408.922 46.24 411.242 46.272Z" fill="white"/>
</svg>
